<mxfile host="65bd71144e" modified="2020-10-28T00:07:21.390Z" agent="5.0 (Macintosh; Intel Mac OS X 10_15_6) AppleWebKit/537.36 (KHTML, like Gecko) Code/1.50.1 Chrome/83.0.4103.122 Electron/9.2.1 Safari/537.36" version="13.6.5" etag="ngidTEAhlLUL_DLetXnh">
    <diagram id="DjjEIfazY3a695adn3AN" name="Page-1">
        <mxGraphModel dx="1359" dy="815" grid="1" gridSize="10" guides="1" tooltips="1" connect="1" arrows="1" fold="1" page="1" pageScale="1" pageWidth="827" pageHeight="1169" math="0" shadow="0">
            <root>
                <mxCell id="0"/>
                <mxCell id="1" parent="0"/>
                <mxCell id="40" value="" style="rounded=0;whiteSpace=wrap;html=1;fillColor=#eeeeee;strokeColor=#36393d;" vertex="1" parent="1">
                    <mxGeometry x="1" width="1240" height="730" as="geometry"/>
                </mxCell>
                <mxCell id="2" value="Controller" style="rounded=1;whiteSpace=wrap;html=1;fillColor=#60a917;strokeColor=#000000;fontColor=#000000;" vertex="1" parent="1">
                    <mxGeometry x="40" y="160" width="120" height="60" as="geometry"/>
                </mxCell>
                <mxCell id="3" value="Service" style="rounded=1;whiteSpace=wrap;html=1;fillColor=#f0a30a;strokeColor=#000000;fontColor=#000000;" vertex="1" parent="1">
                    <mxGeometry x="280" y="160" width="120" height="60" as="geometry"/>
                </mxCell>
                <mxCell id="4" value="Service A" style="rounded=1;whiteSpace=wrap;html=1;fillColor=#f0a30a;strokeColor=#000000;fontColor=#000000;" vertex="1" parent="1">
                    <mxGeometry x="520" y="160" width="120" height="60" as="geometry"/>
                </mxCell>
                <mxCell id="5" value="Service B" style="rounded=1;whiteSpace=wrap;html=1;fillColor=#f0a30a;strokeColor=#000000;fontColor=#000000;" vertex="1" parent="1">
                    <mxGeometry x="520" y="320" width="120" height="60" as="geometry"/>
                </mxCell>
                <mxCell id="6" value="Domain" style="rounded=1;whiteSpace=wrap;html=1;fillColor=#1ba1e2;strokeColor=#000000;fontColor=#000000;" vertex="1" parent="1">
                    <mxGeometry x="760" y="160" width="120" height="60" as="geometry"/>
                </mxCell>
                <mxCell id="7" value="DB" style="shape=cylinder2;whiteSpace=wrap;html=1;boundedLbl=1;backgroundOutline=1;size=15;fillColor=#d80073;strokeColor=#000000;fontColor=#000000;" vertex="1" parent="1">
                    <mxGeometry x="1040" y="145" width="90" height="90" as="geometry"/>
                </mxCell>
                <mxCell id="8" value="APIs" style="ellipse;shape=cloud;whiteSpace=wrap;html=1;fillColor=#d80073;strokeColor=#000000;fontColor=#000000;" vertex="1" parent="1">
                    <mxGeometry x="1025" y="320" width="120" height="80" as="geometry"/>
                </mxCell>
                <mxCell id="10" value="" style="endArrow=none;html=1;dashed=1;strokeColor=#000000;" edge="1" parent="1">
                    <mxGeometry width="50" height="50" relative="1" as="geometry">
                        <mxPoint x="40" y="640" as="sourcePoint"/>
                        <mxPoint x="40" y="40" as="targetPoint"/>
                    </mxGeometry>
                </mxCell>
                <mxCell id="11" value="" style="endArrow=none;html=1;dashed=1;strokeColor=#000000;" edge="1" parent="1">
                    <mxGeometry width="50" height="50" relative="1" as="geometry">
                        <mxPoint x="160" y="170" as="sourcePoint"/>
                        <mxPoint x="160" y="40" as="targetPoint"/>
                    </mxGeometry>
                </mxCell>
                <mxCell id="12" value="" style="endArrow=none;html=1;dashed=1;strokeColor=#000000;" edge="1" parent="1">
                    <mxGeometry width="50" height="50" relative="1" as="geometry">
                        <mxPoint x="280" y="520" as="sourcePoint"/>
                        <mxPoint x="280" y="40" as="targetPoint"/>
                    </mxGeometry>
                </mxCell>
                <mxCell id="13" value="" style="endArrow=none;html=1;dashed=1;strokeColor=#000000;" edge="1" parent="1">
                    <mxGeometry width="50" height="50" relative="1" as="geometry">
                        <mxPoint x="400" y="480" as="sourcePoint"/>
                        <mxPoint x="400" y="40" as="targetPoint"/>
                    </mxGeometry>
                </mxCell>
                <mxCell id="14" value="" style="endArrow=none;html=1;dashed=1;strokeColor=#000000;" edge="1" parent="1">
                    <mxGeometry width="50" height="50" relative="1" as="geometry">
                        <mxPoint x="520" y="200" as="sourcePoint"/>
                        <mxPoint x="520" y="40" as="targetPoint"/>
                    </mxGeometry>
                </mxCell>
                <mxCell id="15" value="" style="endArrow=none;html=1;dashed=1;strokeColor=#000000;" edge="1" parent="1">
                    <mxGeometry width="50" height="50" relative="1" as="geometry">
                        <mxPoint x="639" y="170" as="sourcePoint"/>
                        <mxPoint x="639" y="40" as="targetPoint"/>
                    </mxGeometry>
                </mxCell>
                <mxCell id="16" value="" style="endArrow=none;html=1;dashed=1;strokeColor=#000000;" edge="1" parent="1">
                    <mxGeometry width="50" height="50" relative="1" as="geometry">
                        <mxPoint x="760" y="170" as="sourcePoint"/>
                        <mxPoint x="760" y="40" as="targetPoint"/>
                    </mxGeometry>
                </mxCell>
                <mxCell id="17" value="" style="endArrow=none;html=1;dashed=1;strokeColor=#000000;" edge="1" parent="1">
                    <mxGeometry width="50" height="50" relative="1" as="geometry">
                        <mxPoint x="880" y="520" as="sourcePoint"/>
                        <mxPoint x="880" y="40" as="targetPoint"/>
                    </mxGeometry>
                </mxCell>
                <mxCell id="18" value="" style="endArrow=none;html=1;dashed=1;strokeColor=#000000;" edge="1" parent="1">
                    <mxGeometry width="50" height="50" relative="1" as="geometry">
                        <mxPoint x="1160" y="640" as="sourcePoint"/>
                        <mxPoint x="1160" y="40" as="targetPoint"/>
                    </mxGeometry>
                </mxCell>
                <mxCell id="19" value="" style="endArrow=classic;startArrow=classic;html=1;strokeColor=#000000;" edge="1" parent="1">
                    <mxGeometry width="50" height="50" relative="1" as="geometry">
                        <mxPoint x="40" y="640" as="sourcePoint"/>
                        <mxPoint x="1160" y="640" as="targetPoint"/>
                    </mxGeometry>
                </mxCell>
                <mxCell id="20" value="" style="endArrow=classic;startArrow=classic;html=1;strokeColor=#000000;" edge="1" parent="1">
                    <mxGeometry width="50" height="50" relative="1" as="geometry">
                        <mxPoint x="40" y="480" as="sourcePoint"/>
                        <mxPoint x="400" y="480" as="targetPoint"/>
                    </mxGeometry>
                </mxCell>
                <mxCell id="21" value="" style="endArrow=classic;startArrow=classic;html=1;strokeColor=#000000;" edge="1" parent="1">
                    <mxGeometry width="50" height="50" relative="1" as="geometry">
                        <mxPoint x="280" y="520" as="sourcePoint"/>
                        <mxPoint x="880" y="520" as="targetPoint"/>
                    </mxGeometry>
                </mxCell>
                <mxCell id="22" value="" style="endArrow=classic;startArrow=classic;html=1;entryX=0;entryY=0.5;entryDx=0;entryDy=0;exitX=0.5;exitY=1;exitDx=0;exitDy=0;strokeColor=#000000;" edge="1" parent="1" source="3" target="5">
                    <mxGeometry width="50" height="50" relative="1" as="geometry">
                        <mxPoint x="140" y="340" as="sourcePoint"/>
                        <mxPoint x="500" y="340" as="targetPoint"/>
                        <Array as="points">
                            <mxPoint x="340" y="350"/>
                        </Array>
                    </mxGeometry>
                </mxCell>
                <mxCell id="23" value="" style="endArrow=classic;startArrow=classic;html=1;exitX=1;exitY=0.5;exitDx=0;exitDy=0;strokeColor=#000000;" edge="1" parent="1" source="2" target="3">
                    <mxGeometry width="50" height="50" relative="1" as="geometry">
                        <mxPoint x="60" y="500" as="sourcePoint"/>
                        <mxPoint x="420" y="500" as="targetPoint"/>
                    </mxGeometry>
                </mxCell>
                <mxCell id="24" value="" style="endArrow=classic;startArrow=classic;html=1;exitX=1;exitY=0.5;exitDx=0;exitDy=0;strokeColor=#000000;" edge="1" parent="1">
                    <mxGeometry width="50" height="50" relative="1" as="geometry">
                        <mxPoint x="400" y="189.5" as="sourcePoint"/>
                        <mxPoint x="520" y="189.5" as="targetPoint"/>
                    </mxGeometry>
                </mxCell>
                <mxCell id="25" value="" style="endArrow=classic;startArrow=classic;html=1;exitX=1;exitY=0.5;exitDx=0;exitDy=0;strokeColor=#000000;" edge="1" parent="1">
                    <mxGeometry width="50" height="50" relative="1" as="geometry">
                        <mxPoint x="640" y="189.5" as="sourcePoint"/>
                        <mxPoint x="760" y="189.5" as="targetPoint"/>
                    </mxGeometry>
                </mxCell>
                <mxCell id="26" value="" style="endArrow=classic;startArrow=classic;html=1;exitX=1;exitY=0.5;exitDx=0;exitDy=0;strokeColor=#000000;" edge="1" parent="1">
                    <mxGeometry width="50" height="50" relative="1" as="geometry">
                        <mxPoint x="40" y="40" as="sourcePoint"/>
                        <mxPoint x="160" y="40" as="targetPoint"/>
                    </mxGeometry>
                </mxCell>
                <mxCell id="27" value="" style="endArrow=classic;startArrow=classic;html=1;exitX=1;exitY=0.5;exitDx=0;exitDy=0;strokeColor=#000000;" edge="1" parent="1">
                    <mxGeometry width="50" height="50" relative="1" as="geometry">
                        <mxPoint x="280" y="40" as="sourcePoint"/>
                        <mxPoint x="400" y="40" as="targetPoint"/>
                    </mxGeometry>
                </mxCell>
                <mxCell id="28" value="" style="endArrow=classic;startArrow=classic;html=1;exitX=1;exitY=0.5;exitDx=0;exitDy=0;strokeColor=#000000;" edge="1" parent="1">
                    <mxGeometry width="50" height="50" relative="1" as="geometry">
                        <mxPoint x="520" y="40" as="sourcePoint"/>
                        <mxPoint x="640" y="40" as="targetPoint"/>
                    </mxGeometry>
                </mxCell>
                <mxCell id="29" value="" style="endArrow=classic;startArrow=classic;html=1;exitX=1;exitY=0.5;exitDx=0;exitDy=0;strokeColor=#000000;" edge="1" parent="1">
                    <mxGeometry width="50" height="50" relative="1" as="geometry">
                        <mxPoint x="760" y="40" as="sourcePoint"/>
                        <mxPoint x="880" y="40" as="targetPoint"/>
                    </mxGeometry>
                </mxCell>
                <mxCell id="30" value="" style="endArrow=classic;startArrow=classic;html=1;strokeColor=#000000;" edge="1" parent="1" target="7">
                    <mxGeometry width="50" height="50" relative="1" as="geometry">
                        <mxPoint x="880" y="190" as="sourcePoint"/>
                        <mxPoint x="1010" y="189.5" as="targetPoint"/>
                    </mxGeometry>
                </mxCell>
                <mxCell id="31" value="" style="endArrow=classic;startArrow=classic;html=1;exitX=1;exitY=0.5;exitDx=0;exitDy=0;entryX=0.07;entryY=0.4;entryDx=0;entryDy=0;entryPerimeter=0;strokeColor=#000000;" edge="1" parent="1" source="5" target="8">
                    <mxGeometry width="50" height="50" relative="1" as="geometry">
                        <mxPoint x="720" y="359.5" as="sourcePoint"/>
                        <mxPoint x="880" y="359.5" as="targetPoint"/>
                    </mxGeometry>
                </mxCell>
                <mxCell id="32" value="Integration" style="text;html=1;fillColor=none;align=center;verticalAlign=middle;whiteSpace=wrap;rounded=0;fontColor=#000000;" vertex="1" parent="1">
                    <mxGeometry x="520" y="520" width="160" height="40" as="geometry"/>
                </mxCell>
                <mxCell id="33" value="Functional" style="text;html=1;fillColor=none;align=center;verticalAlign=middle;whiteSpace=wrap;rounded=0;fontColor=#000000;" vertex="1" parent="1">
                    <mxGeometry x="530" y="600" width="160" height="40" as="geometry"/>
                </mxCell>
                <mxCell id="34" value="Integration" style="text;html=1;fillColor=none;align=center;verticalAlign=middle;whiteSpace=wrap;rounded=0;fontColor=#000000;" vertex="1" parent="1">
                    <mxGeometry x="100" y="440" width="160" height="40" as="geometry"/>
                </mxCell>
                <mxCell id="35" value="Unit" style="text;html=1;strokeColor=none;fillColor=none;align=center;verticalAlign=middle;whiteSpace=wrap;rounded=0;fontColor=#000000;" vertex="1" parent="1">
                    <mxGeometry x="40" width="120" height="40" as="geometry"/>
                </mxCell>
                <mxCell id="36" value="Unit" style="text;html=1;strokeColor=none;fillColor=none;align=center;verticalAlign=middle;whiteSpace=wrap;rounded=0;fontColor=#000000;" vertex="1" parent="1">
                    <mxGeometry x="280" width="120" height="40" as="geometry"/>
                </mxCell>
                <mxCell id="37" value="Unit" style="text;html=1;strokeColor=none;fillColor=none;align=center;verticalAlign=middle;whiteSpace=wrap;rounded=0;fontColor=#000000;" vertex="1" parent="1">
                    <mxGeometry x="520" width="120" height="40" as="geometry"/>
                </mxCell>
                <mxCell id="38" value="Unit" style="text;html=1;strokeColor=none;fillColor=none;align=center;verticalAlign=middle;whiteSpace=wrap;rounded=0;fontColor=#000000;" vertex="1" parent="1">
                    <mxGeometry x="760" width="120" height="40" as="geometry"/>
                </mxCell>
            </root>
        </mxGraphModel>
    </diagram>
</mxfile>